# xmcd
#
# Track frame offsets:
#	150
#	20742
#	42185
#	59205
#	77732
#	94450
#	115045
#	136487
#	153507
#	172032
#
# Disc length: 2516 seconds
#
# Revision: 1
# Processed by: cddbd v1.5.1PL0 Copyright (c) Steve Scherf et al.
# Submitted via: audiograbber 1.83.01
#
DISCID=8c09d20a
DTITLE=Shania Twain - BCI - 40055-2
DYEAR=1900
DGENRE=Karaoke
TTITLE0=Rock This Country!
TTITLE1=From This Moment On
TTITLE2=That Don't Impress Me Much
TTITLE3=Man! I Feel Like A Woman
TTITLE4=You're Still The One
TTITLE5=Rock This Country!
TTITLE6=From This Moment On
TTITLE7=That Don't Impress Me Much
TTITLE8=Man! I Feel Like A Woman
TTITLE9=You're Still The One
EXTD=
EXTT0=
EXTT1=
EXTT2=
EXTT3=
EXTT4=
EXTT5=
EXTT6=
EXTT7=
EXTT8=
EXTT9=
PLAYORDER=
